<?xml version="1.0" encoding="utf-8"?>
<!-- Generator: Adobe Illustrator 16.0.0, SVG Export Plug-In . SVG Version: 6.00 Build 0)  -->
<!DOCTYPE svg PUBLIC "-//W3C//DTD SVG 1.0//EN" "http://www.w3.org/TR/2001/REC-SVG-20010904/DTD/svg10.dtd">
<svg version="1.0" id="Layer_1" xmlns="http://www.w3.org/2000/svg" xmlns:xlink="http://www.w3.org/1999/xlink" x="0px" y="0px"
	 width="18px" height="20px" viewBox="0 0 18 20" enable-background="new 0 0 18 20" xml:space="preserve">
<path fill="#F5A534" d="M16.99,5.916c-0.003-0.027-0.007-0.053-0.012-0.08C16.94,5.6,16.82,5.39,16.637,5.236
	c-0.023-0.019-0.045-0.036-0.068-0.052c-0.024-0.017-0.044-0.038-0.07-0.053l-7.004-4c-0.306-0.175-0.682-0.175-0.988,0l-7.004,4
	C1.476,5.146,1.457,5.167,1.434,5.183C1.408,5.201,1.385,5.218,1.361,5.238c-0.09,0.075-0.171,0.16-0.229,0.261
	c0,0.001-0.001,0.001-0.002,0.002C1.129,5.505,1.129,5.509,1.127,5.513C1.073,5.611,1.041,5.719,1.022,5.831
	C1.017,5.861,1.012,5.89,1.01,5.92C1.008,5.946,1,5.97,1,5.995v8.01c0,0.356,0.191,0.687,0.501,0.864l7.004,4
	c0.022,0.012,0.048,0.018,0.071,0.028c0.026,0.013,0.052,0.022,0.08,0.032C8.768,18.972,8.883,19,9,19s0.232-0.028,0.344-0.07
	c0.026-0.01,0.051-0.02,0.076-0.031c0.024-0.011,0.05-0.017,0.074-0.029l7.004-4C16.809,14.691,17,14.361,17,14.005v-8.01
	C17,5.968,16.992,5.942,16.99,5.916z M9,3.141l4.998,2.854L9,8.849L4.001,5.995L9,3.141z M2.991,7.709l5.014,2.863l0,5.718
	l-5.013-2.862V7.709z"/>
</svg>
