<?xml version="1.0" encoding="utf-8"?>
<!-- Generator: Adobe Illustrator 16.0.0, SVG Export Plug-In . SVG Version: 6.00 Build 0)  -->
<!DOCTYPE svg PUBLIC "-//W3C//DTD SVG 1.0//EN" "http://www.w3.org/TR/2001/REC-SVG-20010904/DTD/svg10.dtd">
<svg version="1.0" id="Layer_1" xmlns="http://www.w3.org/2000/svg" xmlns:xlink="http://www.w3.org/1999/xlink" x="0px" y="0px"
	 width="18px" height="18px" viewBox="0 0 18 18" enable-background="new 0 0 18 18" xml:space="preserve">
<g>
	<path fill="#FFFFFF" d="M6.173,6.173C6.897,5.448,7.897,5,9,5c2.205,0,4,1.794,4,4c0,0.739-0.215,1.424-0.566,2.019l0.102,0.102
		l1.352,1.353C14.585,11.492,15,10.296,15,9c0-3.313-2.687-6-6-6C7.343,3,5.844,3.672,4.758,4.758L3,3v5h5L6.173,6.173z"/>
	<g>
		<path fill="#FFFFFF" d="M10,15c0.91-0.154,1.75-0.511,2.473-1.024l-1.453-1.454c-0.316,0.187-0.658,0.331-1.02,0.429V15z"/>
	</g>
</g>
<path fill="#FFFFFF" d="M4.039,12.457C3.527,11.735,3.153,10.909,3,10h2.052c0.094,0.361,0.247,0.697,0.431,1.013L4.039,12.457z"/>
<path fill="#FFFFFF" d="M8,15c-0.905-0.158-1.738-0.522-2.459-1.036l1.437-1.437C7.293,12.716,7.637,12.859,8,12.956L8,15z"/>
</svg>
